<?xml version="1.0" encoding="utf-8"?>
<!-- Generator: Adobe Illustrator 27.7.0, SVG Export Plug-In . SVG Version: 6.00 Build 0)  -->
<svg version="1.1" id="Calque_1" xmlns="http://www.w3.org/2000/svg" xmlns:xlink="http://www.w3.org/1999/xlink" x="0px" y="0px"
	 viewBox="0 0 48 48" style="enable-background:new 0 0 48 48;" xml:space="preserve">
<style type="text/css">
	.st0{fill:#141614;}
	.st1{fill:#FFFFFF;}
</style>
<g>
	<g>
		<path id="XMLID_682_" class="st0" d="M24,47.2L24,47.2C11.2,47.2,0.8,36.8,0.8,24l0,0C0.8,11.2,11.2,0.8,24,0.8l0,0
			c12.8,0,23.2,10.4,23.2,23.2l0,0C47.2,36.8,36.8,47.2,24,47.2z"/>
	</g>
	<g id="XMLID_665_">
		<g id="XMLID_667_">
			<rect id="XMLID_669_" x="14.1" y="19.4" class="st1" width="4.3" height="13.8"/>
			<path id="XMLID_668_" class="st1" d="M16.2,17.6c1.4,0,2.5-1.1,2.5-2.5s-1.1-2.5-2.5-2.5s-2.5,1.1-2.5,2.5S14.8,17.6,16.2,17.6z"
				/>
		</g>
		<path id="XMLID_666_" class="st1" d="M25.2,25.9c0-1.9,0.9-3.1,2.6-3.1c1.6,0,2.3,1.1,2.3,3.1s0,7.2,0,7.2h4.2c0,0,0-5,0-8.7
			s-2.1-5.5-5-5.5s-4.1,2.3-4.1,2.3v-1.9h-4.1v13.8h4.1C25.2,33.2,25.2,28.1,25.2,25.9z"/>
	</g>
</g>
</svg>
