<?xml version="1.0" encoding="utf-8"?>
<!-- Generator: Adobe Illustrator 27.7.0, SVG Export Plug-In . SVG Version: 6.00 Build 0)  -->
<svg version="1.1" id="Calque_1" xmlns="http://www.w3.org/2000/svg" xmlns:xlink="http://www.w3.org/1999/xlink" x="0px" y="0px"
	 viewBox="0 0 48 48" style="enable-background:new 0 0 48 48;" xml:space="preserve">
<style type="text/css">
	.st0{fill:#020203;stroke:#141614;stroke-width:0.4321;stroke-miterlimit:10;}
	.st1{fill:#FFFFFF;}
</style>
<g>
	<g>
		<path id="XMLID_696_" class="st0" d="M24,47.2L24,47.2C11.2,47.2,0.8,36.8,0.8,24l0,0C0.8,11.2,11.2,0.8,24,0.8l0,0
			c12.8,0,23.2,10.4,23.2,23.2l0,0C47.2,36.8,36.8,47.2,24,47.2z"/>
	</g>
	<g id="XMLID_649_">
		<path id="XMLID_656_" class="st1" d="M24,14.7c3,0,3.4,0,4.6,0.1c1.1,0.1,1.7,0.2,2.1,0.4c0.5,0.2,0.9,0.4,1.3,0.8
			c0.4,0.4,0.6,0.8,0.8,1.3c0.2,0.4,0.3,1,0.4,2.1c0,1.2,0.1,1.5,0.1,4.6c0,3,0,3.4-0.1,4.6c0,1.1-0.2,1.7-0.4,2.1
			c-0.2,0.5-0.5,0.9-0.8,1.3c-0.4,0.4-0.8,0.6-1.3,0.8c-0.4,0.2-1,0.3-2.1,0.4c-1.2,0-1.5,0.1-4.6,0.1c-3,0-3.4,0-4.6-0.1
			c-1.1,0-1.7-0.2-2.1-0.4c-0.5-0.2-0.9-0.5-1.3-0.8c-0.4-0.4-0.6-0.8-0.8-1.3c-0.1-0.4-0.3-1-0.4-2.1c-0.1-1.2-0.1-1.5-0.1-4.6
			c0-3,0-3.4,0.1-4.6c0.1-1.1,0.2-1.7,0.4-2.1c0.2-0.5,0.4-0.9,0.8-1.3c0.4-0.4,0.8-0.6,1.3-0.8c0.4-0.1,1-0.3,2.1-0.4
			C20.6,14.8,21,14.7,24,14.7 M24,12.7c-3.1,0-3.5,0-4.7,0.1c-1.2,0.1-2,0.2-2.7,0.5c-0.7,0.3-1.4,0.7-2,1.3s-1,1.3-1.3,2
			c-0.3,0.7-0.5,1.5-0.5,2.7c-0.1,1.2-0.1,1.6-0.1,4.7s0,3.5,0.1,4.7c0.1,1.2,0.2,2,0.5,2.7c0.3,0.7,0.7,1.4,1.3,2
			c0.6,0.6,1.3,1,2,1.3c0.7,0.3,1.5,0.5,2.7,0.5s1.6,0.1,4.7,0.1s3.5,0,4.7-0.1c1.2,0,2-0.2,2.7-0.5c0.7-0.3,1.4-0.7,2-1.3
			c0.6-0.6,1-1.3,1.3-2c0.3-0.7,0.5-1.5,0.5-2.7c0-1.2,0.1-1.6,0.1-4.7s0-3.5-0.1-4.7c0-1.2-0.2-2-0.5-2.7c-0.3-0.7-0.7-1.4-1.3-2
			s-1.3-1-2-1.3c-0.7-0.3-1.5-0.5-2.7-0.5C27.5,12.7,27.1,12.7,24,12.7"/>
		<path id="XMLID_653_" class="st1" d="M24,18.2c-3.2,0-5.8,2.6-5.8,5.8s2.6,5.8,5.8,5.8s5.8-2.6,5.8-5.8S27.2,18.2,24,18.2
			 M24,27.8c-2.1,0-3.8-1.7-3.8-3.8c0-2.1,1.7-3.8,3.8-3.8c2.1,0,3.8,1.7,3.8,3.8C27.8,26.1,26.1,27.8,24,27.8"/>
		<path id="XMLID_652_" class="st1" d="M31.4,18c0,0.8-0.6,1.4-1.4,1.4s-1.4-0.6-1.4-1.4s0.6-1.4,1.4-1.4
			C30.8,16.6,31.4,17.2,31.4,18"/>
	</g>
</g>
</svg>
