<svg xmlns="http://www.w3.org/2000/svg" id="uuid-38931c88-c19a-4c5c-ba7b-417fa7569217" data-name="Calque 1" viewBox="0 0 40 40"><g id="uuid-341efb81-a65f-4430-a460-3588c3618e00" data-name="Calque 2"><circle cx="20" cy="20" r="19" style="fill: none; stroke: #000; stroke-width: 2px;"></circle><path d="M30.3,17.88c-2.03,0-4-.63-5.65-1.81v8.22c0,4.13-3.35,7.48-7.48,7.48-4.13,0-7.48-3.35-7.48-7.48,0-4.13,3.35-7.48,7.48-7.48.34,0,.68.02,1.02.07v4.14c-1.81-.57-3.74.44-4.31,2.25s.44,3.74,2.25,4.31,3.74-.44,4.31-2.25c.1-.33.16-.68.16-1.03V8.22h4.05c0,.34.03.68.09,1.02h0c.28,1.52,1.18,2.85,2.48,3.69.91.6,1.99.93,3.08.93v4.02Z"></path></g></svg>