<?xml version="1.0" encoding="utf-8"?>
<!-- Generator: Adobe Illustrator 27.7.0, SVG Export Plug-In . SVG Version: 6.00 Build 0)  -->
<svg version="1.1" id="Calque_1" xmlns="http://www.w3.org/2000/svg" xmlns:xlink="http://www.w3.org/1999/xlink" x="0px" y="0px"
	 viewBox="0 0 48 48" style="enable-background:new 0 0 48 48;" xml:space="preserve">
<style type="text/css">
	.st0{fill:none;stroke:#141614;stroke-width:2;stroke-miterlimit:10;}
	.st1{fill:#141614;}
</style>
<g>
	<g>
		<path id="XMLID_693_" class="st0" d="M24,47.2L24,47.2C11.2,47.2,0.8,36.8,0.8,24l0,0C0.8,11.2,11.2,0.8,24,0.8l0,0
			c12.8,0,23.2,10.4,23.2,23.2l0,0C47.2,36.8,36.8,47.2,24,47.2z"/>
	</g>
	<path id="XMLID_670_" class="st1" d="M13,31.8c2,1.3,4.4,2,6.9,2c8.4,0,13.1-7.1,12.8-13.4c0.9-0.6,1.6-1.4,2.2-2.3
		c-0.8,0.4-1.7,0.6-2.6,0.7c0.9-0.6,1.6-1.4,2-2.5c-0.9,0.5-1.8,0.9-2.9,1.1c-0.8-0.9-2-1.4-3.3-1.4c-2.9,0-5,2.7-4.4,5.5
		c-3.7-0.2-7.1-2-9.3-4.7c-1.2,2-0.6,4.7,1.4,6c-0.7,0-1.4-0.2-2-0.6c-0.1,2.1,1.4,4,3.6,4.5c-0.6,0.2-1.3,0.2-2,0.1
		c0.6,1.8,2.2,3.1,4.2,3.1C17.8,31.5,15.4,32.1,13,31.8z"/>
</g>
</svg>
